{
  "accessors": [
    {
      "bufferView": 1,
      "componentType": 5126,
      "count": 9157,
      "max": [
        0.7854999899864197,
        2.355989933013916,
        -0.0
      ],
      "min": [
        -1.650089979171753,
        -1.4807000160217285,
        -0.4059700071811676
      ],
      "type": "VEC3"
    },
    {
      "bufferView": 1,
      "byteOffset": 109884,
      "componentType": 5126,
      "count": 9157,
      "max": [
        1.0,
        1.0,
        1.0
      ],
      "min": [
        -1.0,
        -1.0,
        -1.0
      ],
      "type": "VEC3"
    },
    {
      "bufferView": 0,
      "componentType": 5125,
      "count": 22617,
      "type": "SCALAR"
    },
    {
      "bufferView": 1,
      "byteOffset": 219768,
      "componentType": 5126,
      "count": 668,
      "max": [
        0.923829972743988,
        2.8203799724578857,
        0.0
      ],
      "min": [
        -1.024999976158142,
        -0.38892999291419983,
        -2.2990798950195313
      ],
      "type": "VEC3"
    },
    {
      "bufferView": 1,
      "byteOffset": 227784,
      "componentType": 5126,
      "count": 668,
      "max": [
        1.0,
        0.9734172224998474,
        1.0
      ],
      "min": [
        -1.0,
        -1.0,
        -1.0
      ],
      "type": "VEC3"
    },
    {
      "bufferView": 0,
      "byteOffset": 90468,
      "componentType": 5125,
      "count": 1308,
      "type": "SCALAR"
    },
    {
      "bufferView": 1,
      "byteOffset": 235800,
      "componentType": 5126,
      "count": 65532,
      "max": [
        0.5520700216293335,
        -0.6954799890518188,
        -0.0
      ],
      "min": [
        -0.46974998712539673,
        -0.9921500086784363,
        -0.23544000089168549
      ],
      "type": "VEC3"
    },
    {
      "bufferView": 1,
      "byteOffset": 1022184,
      "componentType": 5126,
      "count": 65532,
      "max": [
        0.9999995827674866,
        1.0,
        1.0
      ],
      "min": [
        -0.9999586939811707,
        -1.0,
        -1.0
      ],
      "type": "VEC3"
    },
    {
      "bufferView": 0,
      "byteOffset": 95700,
      "componentType": 5125,
      "count": 380034,
      "type": "SCALAR"
    },
    {
      "bufferView": 1,
      "byteOffset": 1808568,
      "componentType": 5126,
      "count": 65532,
      "max": [
        0.9937000274658203,
        0.9249899983406067,
        -0.0
      ],
      "min": [
        -0.46974998712539673,
        -0.9742199778556824,
        -0.23544000089168549
      ],
      "type": "VEC3"
    },
    {
      "bufferView": 1,
      "byteOffset": 2594952,
      "componentType": 5126,
      "count": 65532,
      "max": [
        1.0,
        0.9999992251396179,
        1.0
      ],
      "min": [
        -1.0,
        -0.9999974370002747,
        -1.0
      ],
      "type": "VEC3"
    },
    {
      "bufferView": 0,
      "byteOffset": 1615836,
      "componentType": 5125,
      "count": 380973,
      "type": "SCALAR"
    },
    {
      "bufferView": 1,
      "byteOffset": 3381336,
      "componentType": 5126,
      "count": 36201,
      "max": [
        0.9937000274658203,
        0.9249899983406067,
        -0.0
      ],
      "min": [
        -0.46974998712539673,
        -0.9921500086784363,
        -0.23544000089168549
      ],
      "type": "VEC3"
    },
    {
      "bufferView": 1,
      "byteOffset": 3815748,
      "componentType": 5126,
      "count": 36201,
      "max": [
        1.0,
        1.0,
        1.0
      ],
      "min": [
        -1.0,
        -1.0,
        -1.0
      ],
      "type": "VEC3"
    },
    {
      "bufferView": 0,
      "byteOffset": 3139728,
      "componentType": 5125,
      "count": 193476,
      "type": "SCALAR"
    },
    {
      "bufferView": 1,
      "byteOffset": 4250160,
      "componentType": 5126,
      "count": 12924,
      "max": [
        24.119260787963867,
        2.1031100749969482,
        1.1453900337219238
      ],
      "min": [
        -63.57313919067383,
        -125.23169708251953,
        -8.928669929504395
      ],
      "type": "VEC3"
    },
    {
      "bufferView": 1,
      "byteOffset": 4405248,
      "componentType": 5126,
      "count": 12924,
      "max": [
        0.9999722838401794,
        0.9995407462120056,
        0.9999635815620422
      ],
      "min": [
        -0.9980999827384949,
        -0.9999183416366577,
        -0.9999195337295532
      ],
      "type": "VEC3"
    },
    {
      "bufferView": 0,
      "byteOffset": 3913632,
      "componentType": 5125,
      "count": 68160,
      "type": "SCALAR"
    },
    {
      "bufferView": 1,
      "byteOffset": 4560336,
      "componentType": 5126,
      "count": 12924,
      "max": [
        24.301509857177734,
        2.1543400287628174,
        0.9408800005912781
      ],
      "min": [
        -63.74251937866211,
        -125.4781265258789,
        -8.906900405883789
      ],
      "type": "VEC3"
    },
    {
      "bufferView": 1,
      "byteOffset": 4715424,
      "componentType": 5126,
      "count": 12924,
      "max": [
        0.9994482398033142,
        0.9999855160713196,
        0.9997327327728271
      ],
      "min": [
        -0.9997231364250183,
        -0.9999197721481323,
        -0.9999478459358215
      ],
      "type": "VEC3"
    },
    {
      "bufferView": 0,
      "byteOffset": 4186272,
      "componentType": 5125,
      "count": 68160,
      "type": "SCALAR"
    },
    {
      "bufferView": 1,
      "byteOffset": 4870512,
      "componentType": 5126,
      "count": 12924,
      "max": [
        24.603290557861328,
        2.6210999488830566,
        1.6561000347137451
      ],
      "min": [
        -63.908931732177734,
        -125.76358795166016,
        -9.539199829101563
      ],
      "type": "VEC3"
    },
    {
      "bufferView": 1,
      "byteOffset": 5025600,
      "componentType": 5126,
      "count": 12924,
      "max": [
        0.999923825263977,
        0.9999036192893982,
        0.9997723698616028
      ],
      "min": [
        -0.999748706817627,
        -0.9999176263809204,
        -0.9997354745864868
      ],
      "type": "VEC3"
    },
    {
      "bufferView": 0,
      "byteOffset": 4458912,
      "componentType": 5125,
      "count": 68160,
      "type": "SCALAR"
    }
  ],
  "asset": {
    "extras": {
      "author": "Ian Dowson (https://sketchfab.com/eonie316)",
      "license": "CC-BY-4.0 (http://creativecommons.org/licenses/by/4.0/)",
      "source": "https://sketchfab.com/3d-models/avengers-logo-b941a3ae0ab646af9d2d04d66cc4574f",
      "title": "Avengers Logo"
    },
    "generator": "Sketchfab-12.66.0",
    "version": "2.0"
  },
  "bufferViews": [
    {
      "buffer": 0,
      "byteLength": 4731552,
      "name": "floatBufferViews",
      "target": 34963
    },
    {
      "buffer": 0,
      "byteLength": 5180688,
      "byteOffset": 4731552,
      "byteStride": 12,
      "name": "floatBufferViews",
      "target": 34962
    }
  ],
  "buffers": [
    {
      "byteLength": 9912240,
      "uri": "scene.bin"
    }
  ],
  "materials": [
    {
      "doubleSided": true,
      "name": "Root",
      "pbrMetallicRoughness": {
        "baseColorFactor": [
          0.026105182926829267,
          0.026105182926829267,
          0.026105182926829267,
          1.0
        ],
        "metallicFactor": 0.6907393292682927,
        "roughnessFactor": 0.3336509146341463
      }
    }
  ],
  "meshes": [
    {
      "name": "Main-A_0",
      "primitives": [
        {
          "attributes": {
            "NORMAL": 1,
            "POSITION": 0
          },
          "indices": 2,
          "material": 0,
          "mode": 4
        }
      ]
    },
    {
      "name": "Base-A_0",
      "primitives": [
        {
          "attributes": {
            "NORMAL": 4,
            "POSITION": 3
          },
          "indices": 5,
          "material": 0,
          "mode": 4
        }
      ]
    },
    {
      "name": "Edge-Circle_0",
      "primitives": [
        {
          "attributes": {
            "NORMAL": 7,
            "POSITION": 6
          },
          "indices": 8,
          "material": 0,
          "mode": 4
        }
      ]
    },
    {
      "name": "Edge-Circle_0",
      "primitives": [
        {
          "attributes": {
            "NORMAL": 10,
            "POSITION": 9
          },
          "indices": 11,
          "material": 0,
          "mode": 4
        }
      ]
    },
    {
      "name": "Edge-Circle_0",
      "primitives": [
        {
          "attributes": {
            "NORMAL": 13,
            "POSITION": 12
          },
          "indices": 14,
          "material": 0,
          "mode": 4
        }
      ]
    },
    {
      "name": "Debris-1_0",
      "primitives": [
        {
          "attributes": {
            "NORMAL": 16,
            "POSITION": 15
          },
          "indices": 17,
          "material": 0,
          "mode": 4
        }
      ]
    },
    {
      "name": "Debris-1.001_0",
      "primitives": [
        {
          "attributes": {
            "NORMAL": 19,
            "POSITION": 18
          },
          "indices": 20,
          "material": 0,
          "mode": 4
        }
      ]
    },
    {
      "name": "Debris-1.002_0",
      "primitives": [
        {
          "attributes": {
            "NORMAL": 22,
            "POSITION": 21
          },
          "indices": 23,
          "material": 0,
          "mode": 4
        }
      ]
    }
  ],
  "nodes": [
    {
      "children": [
        1
      ],
      "matrix": [
        1.0,
        0.0,
        0.0,
        0.0,
        0.0,
        2.220446049250313e-16,
        -1.0,
        0.0,
        0.0,
        1.0,
        2.220446049250313e-16,
        0.0,
        0.0,
        0.0,
        0.0,
        1.0
      ],
      "name": "Sketchfab_model"
    },
    {
      "children": [
        2,
        4,
        6,
        8,
        12,
        14,
        16
      ],
      "name": "Root"
    },
    {
      "children": [
        3
      ],
      "matrix": [
        -0.29086000000000006,
        0.9551700000000001,
        -0.05519000000000001,
        0.0,
        -0.7711,
        -0.19988000000000003,
        0.6045200000000001,
        0.0,
        0.5663900000000001,
        0.21839000000000003,
        0.7946700000000001,
        0.0,
        4.076250000000001,
        1.00545,
        5.903860000000001,
        1.0
      ],
      "name": "Lamp"
    },
    {
      "name": "Lamp"
    },
    {
      "children": [
        5
      ],
      "matrix": [
        1.0,
        0.0,
        0.0,
        0.0,
        0.0,
        -0.0,
        1.0,
        0.0,
        0.0,
        -1.0,
        -0.0,
        0.0,
        0.0,
        0.0,
        0.0,
        1.0
      ],
      "name": "Main-A"
    },
    {
      "mesh": 0,
      "name": "Main-A_0"
    },
    {
      "children": [
        7
      ],
      "matrix": [
        0.17245000000000002,
        0.0,
        0.0,
        0.0,
        0.0,
        -0.0,
        0.17245000000000002,
        0.0,
        0.0,
        -0.17245000000000002,
        -0.0,
        0.0,
        0.6249300000000001,
        0.0,
        -0.6851600000000001,
        1.0
      ],
      "name": "Base-A"
    },
    {
      "mesh": 1,
      "name": "Base-A_0"
    },
    {
      "children": [
        9,
        10,
        11
      ],
      "matrix": [
        1.70922,
        0.0,
        0.0,
        0.0,
        0.0,
        -0.0,
        1.70922,
        0.0,
        0.0,
        -1.68272,
        -0.0,
        0.0,
        -0.004970000000000001,
        0.004700000000000001,
        0.25318,
        1.0
      ],
      "name": "Edge-Circle"
    },
    {
      "mesh": 2,
      "name": "Edge-Circle_0"
    },
    {
      "mesh": 3,
      "name": "Edge-Circle_0"
    },
    {
      "mesh": 4,
      "name": "Edge-Circle_0"
    },
    {
      "children": [
        13
      ],
      "matrix": [
        0.029510000000000005,
        0.0020700000000000007,
        0.0,
        0.0,
        0.0,
        -0.0,
        0.029580000000000006,
        0.0,
        0.0006800000000000002,
        -0.009700000000000004,
        -0.0,
        0.0,
        -0.09620000000000004,
        0.07352000000000002,
        2.2638700000000003,
        1.0
      ],
      "name": "Debris-1"
    },
    {
      "mesh": 5,
      "name": "Debris-1_0"
    },
    {
      "children": [
        15
      ],
      "matrix": [
        0.029560000000000006,
        -0.0010200000000000003,
        0.0,
        0.0,
        -0.0,
        -0.0,
        0.029580000000000006,
        0.0,
        -0.0003300000000000001,
        -0.009720000000000003,
        -0.0,
        0.0,
        -0.14377,
        0.33860000000000007,
        2.2977000000000003,
        1.0
      ],
      "name": "Debris-1.001"
    },
    {
      "mesh": 6,
      "name": "Debris-1.001_0"
    },
    {
      "children": [
        17
      ],
      "matrix": [
        0.028250000000000004,
        -0.00013000000000000004,
        0.0,
        0.0,
        -0.0,
        -0.0,
        0.028250000000000004,
        0.0,
        -6.000000000000002e-05,
        -0.012690000000000002,
        -0.0,
        0.0,
        -0.22672000000000003,
        0.16377000000000003,
        2.2226,
        1.0
      ],
      "name": "Debris-1.002"
    },
    {
      "mesh": 7,
      "name": "Debris-1.002_0"
    }
  ],
  "scene": 0,
  "scenes": [
    {
      "name": "Sketchfab_Scene",
      "nodes": [
        0
      ]
    }
  ]
}
