{
  "accessors": [
    {
      "bufferView": 2,
      "componentType": 5126,
      "count": 65532,
      "max": [
        1.92780601978302,
        8.00396728515625,
        1.592360019683838
      ],
      "min": [
        -1.1303199529647827,
        0.2650751769542694,
        -1.9610400199890137
      ],
      "type": "VEC3"
    },
    {
      "bufferView": 2,
      "byteOffset": 786384,
      "componentType": 5126,
      "count": 65532,
      "max": [
        0.9999903440475464,
        1.0,
        0.9997856616973877
      ],
      "min": [
        -0.9999511241912842,
        -1.0,
        -0.9999967813491821
      ],
      "type": "VEC3"
    },
    {
      "bufferView": 3,
      "componentType": 5126,
      "count": 65532,
      "max": [
        1.0,
        0.9978017807006836,
        0.9999876618385315,
        1.0
      ],
      "min": [
        -1.0,
        -0.986163318157196,
        -0.9947940111160278,
        -1.0
      ],
      "type": "VEC4"
    },
    {
      "bufferView": 1,
      "componentType": 5126,
      "count": 65532,
      "max": [
        0.9149332642555237,
        0.9931609034538269
      ],
      "min": [
        0.005402747541666031,
        0.011744696646928787
      ],
      "type": "VEC2"
    },
    {
      "bufferView": 0,
      "componentType": 5125,
      "count": 369609,
      "type": "SCALAR"
    },
    {
      "bufferView": 2,
      "byteOffset": 1572768,
      "componentType": 5126,
      "count": 59633,
      "max": [
        1.92780601978302,
        8.00396728515625,
        1.7239899635314941
      ],
      "min": [
        -1.1194008588790894,
        0.2650751769542694,
        -1.9900990724563599
      ],
      "type": "VEC3"
    },
    {
      "bufferView": 2,
      "byteOffset": 2288364,
      "componentType": 5126,
      "count": 59633,
      "max": [
        0.9999951124191284,
        1.0,
        0.9999747276306152
      ],
      "min": [
        -0.9999986886978149,
        -0.9964520335197449,
        -0.9999816417694092
      ],
      "type": "VEC3"
    },
    {
      "bufferView": 3,
      "byteOffset": 1048512,
      "componentType": 5126,
      "count": 59633,
      "max": [
        1.0,
        0.9955697655677795,
        0.9999997615814209,
        1.0
      ],
      "min": [
        -0.9998787641525269,
        -0.986163318157196,
        -0.9999947547912598,
        -1.0
      ],
      "type": "VEC4"
    },
    {
      "bufferView": 1,
      "byteOffset": 524256,
      "componentType": 5126,
      "count": 59633,
      "max": [
        0.961823046207428,
        0.994343638420105
      ],
      "min": [
        0.0013036996824666858,
        9.834207594394684e-05
      ],
      "type": "VEC2"
    },
    {
      "bufferView": 0,
      "byteOffset": 1478436,
      "componentType": 5125,
      "count": 332304,
      "type": "SCALAR"
    }
  ],
  "asset": {
    "extras": {
      "author": "chrisg4919 (https://sketchfab.com/chrisg4919)",
      "license": "CC-BY-4.0 (http://creativecommons.org/licenses/by/4.0/)",
      "source": "https://sketchfab.com/3d-models/photoscanned-oak-tree-trunk-01-b609c982236c459786747a16188d1e59",
      "title": "Photoscanned Oak Tree Trunk 01"
    },
    "generator": "Sketchfab-12.68.0",
    "version": "2.0"
  },
  "bufferViews": [
    {
      "buffer": 0,
      "byteLength": 2807652,
      "name": "floatBufferViews",
      "target": 34963
    },
    {
      "buffer": 0,
      "byteLength": 1001320,
      "byteOffset": 2807652,
      "byteStride": 8,
      "name": "floatBufferViews",
      "target": 34962
    },
    {
      "buffer": 0,
      "byteLength": 3003960,
      "byteOffset": 3808972,
      "byteStride": 12,
      "name": "floatBufferViews",
      "target": 34962
    },
    {
      "buffer": 0,
      "byteLength": 2002640,
      "byteOffset": 6812932,
      "byteStride": 16,
      "name": "floatBufferViews",
      "target": 34962
    }
  ],
  "buffers": [
    {
      "byteLength": 8815572,
      "uri": "scene.bin"
    }
  ],
  "images": [
    {
      "uri": "textures/Default_OBJ.001_baseColor.png"
    },
    {
      "uri": "textures/Default_OBJ.001_metallicRoughness.png"
    },
    {
      "uri": "textures/Default_OBJ.001_normal.png"
    }
  ],
  "materials": [
    {
      "doubleSided": true,
      "name": "Default_OBJ.001",
      "normalTexture": {
        "index": 2
      },
      "occlusionTexture": {
        "index": 1
      },
      "pbrMetallicRoughness": {
        "baseColorTexture": {
          "index": 0
        },
        "metallicRoughnessTexture": {
          "index": 1
        }
      }
    }
  ],
  "meshes": [
    {
      "name": "OakTree_Quad.002_Default OBJ.001_0",
      "primitives": [
        {
          "attributes": {
            "NORMAL": 1,
            "POSITION": 0,
            "TANGENT": 2,
            "TEXCOORD_0": 3
          },
          "indices": 4,
          "material": 0,
          "mode": 4
        }
      ]
    },
    {
      "name": "OakTree_Quad.002_Default OBJ.001_0",
      "primitives": [
        {
          "attributes": {
            "NORMAL": 6,
            "POSITION": 5,
            "TANGENT": 7,
            "TEXCOORD_0": 8
          },
          "indices": 9,
          "material": 0,
          "mode": 4
        }
      ]
    }
  ],
  "nodes": [
    {
      "children": [
        1
      ],
      "matrix": [
        1.0,
        0.0,
        0.0,
        0.0,
        0.0,
        2.220446049250313e-16,
        -1.0,
        0.0,
        0.0,
        1.0,
        2.220446049250313e-16,
        0.0,
        0.0,
        0.0,
        0.0,
        1.0
      ],
      "name": "Sketchfab_model"
    },
    {
      "children": [
        2
      ],
      "matrix": [
        0.009999999776482582,
        0.0,
        0.0,
        0.0,
        0.0,
        0.0,
        0.009999999776482582,
        0.0,
        0.0,
        -0.009999999776482582,
        0.0,
        0.0,
        0.0,
        0.0,
        0.0,
        1.0
      ],
      "name": "aaa16cd48c304ce98dfa6a3b454f3e66.fbx"
    },
    {
      "children": [
        3
      ],
      "name": "RootNode"
    },
    {
      "children": [
        4,
        5
      ],
      "matrix": [
        35.65998840332031,
        0.0,
        0.0,
        0.0,
        0.0,
        35.659988403319836,
        5.809749228967536e-06,
        0.0,
        0.0,
        -5.809749228967536e-06,
        35.659988403319836,
        0.0,
        0.0,
        -9.911887168884277,
        0.0,
        1.0
      ],
      "name": "OakTree_Quad.002"
    },
    {
      "mesh": 0,
      "name": "OakTree_Quad.002_Default OBJ.001_0"
    },
    {
      "mesh": 1,
      "name": "OakTree_Quad.002_Default OBJ.001_0"
    }
  ],
  "samplers": [
    {
      "magFilter": 9729,
      "minFilter": 9987,
      "wrapS": 10497,
      "wrapT": 10497
    }
  ],
  "scene": 0,
  "scenes": [
    {
      "name": "Sketchfab_Scene",
      "nodes": [
        0
      ]
    }
  ],
  "textures": [
    {
      "sampler": 0,
      "source": 0
    },
    {
      "sampler": 0,
      "source": 1
    },
    {
      "sampler": 0,
      "source": 2
    }
  ]
}
